<svg width="514" height="86" viewBox="0 0 514 86" fill="none" xmlns="http://www.w3.org/2000/svg">
<mask id="path-1-outside-1_11_15" maskUnits="userSpaceOnUse" x="0" y="0" width="514" height="86" fill="black">
<rect fill="white" width="514" height="86"/>
<path d="M66.388 27.4157C64.2762 23.0749 61.2177 19.7303 57.2126 17.382C53.2074 14.9625 48.5469 13.7528 43.231 13.7528C37.915 13.7528 33.1089 14.9625 28.8124 17.382C24.5888 19.7303 21.2391 23.1461 18.7631 27.6292C16.3601 32.0412 15.1585 37.1648 15.1585 43C15.1585 48.8352 16.3601 53.9588 18.7631 58.3708C21.2391 62.7828 24.5888 66.1985 28.8124 68.618C33.1089 70.9663 37.915 72.1405 43.231 72.1405C50.6587 72.1405 56.7756 69.97 61.5818 65.6292C66.388 61.2884 69.1916 55.4176 69.9926 48.0169H39.6263V40.118H80.5881V47.5899C80.0055 53.7097 78.0393 59.3315 74.6896 64.4551C71.3398 69.5075 66.9341 73.5281 61.4726 76.5169C56.011 79.4345 49.9305 80.8933 43.231 80.8933C36.1673 80.8933 29.7227 79.2921 23.897 76.0899C18.0713 72.8165 13.4472 68.2978 10.0246 62.5337C6.67488 56.7697 5 50.2584 5 43C5 35.7416 6.67488 29.2303 10.0246 23.4663C13.4472 17.6311 18.0713 13.1124 23.897 9.91011C29.7227 6.6367 36.1673 5 43.231 5C51.3141 5 58.4505 6.95693 64.6403 10.8708C70.9029 14.7846 75.4542 20.2996 78.2942 27.4157H66.388Z"/>
<path d="M128.248 81C121.184 81 114.74 79.3989 108.914 76.1966C103.088 72.9232 98.4642 68.4045 95.0416 62.6405C91.6918 56.8053 90.0169 50.2584 90.0169 43C90.0169 35.7416 91.6918 29.2303 95.0416 23.4663C98.4642 17.6311 103.088 13.1124 108.914 9.91011C114.74 6.6367 121.184 5 128.248 5C135.384 5 141.865 6.6367 147.691 9.91011C153.517 13.1124 158.104 17.5955 161.454 23.3595C164.804 29.1236 166.479 35.6704 166.479 43C166.479 50.3296 164.804 56.8764 161.454 62.6405C158.104 68.4045 153.517 72.9232 147.691 76.1966C141.865 79.3989 135.384 81 128.248 81ZM128.248 72.5674C133.564 72.5674 138.334 71.3577 142.557 68.9382C146.854 66.5187 150.203 63.0674 152.606 58.5843C155.082 54.1011 156.32 48.9064 156.32 43C156.32 37.0225 155.082 31.8277 152.606 27.4157C150.203 22.9326 146.89 19.4813 142.666 17.0618C138.443 14.6423 133.637 13.4326 128.248 13.4326C122.859 13.4326 118.053 14.6423 113.829 17.0618C109.606 19.4813 106.256 22.9326 103.78 27.4157C101.377 31.8277 100.175 37.0225 100.175 43C100.175 48.9064 101.377 54.1011 103.78 58.5843C106.256 63.0674 109.606 66.5187 113.829 68.9382C118.126 71.3577 122.932 72.5674 128.248 72.5674Z"/>
<path d="M239.46 80.2528H229.52L189.541 21.0112V80.2528H179.601V5.74719H189.541L229.52 64.882V5.74719H239.46V80.2528Z"/>
<path d="M264.815 71.8202H301.954V80.2528H253.018V72.5674L289.938 14.2865H253.455V5.85393H301.735V13.5393L264.815 71.8202Z"/>
<path d="M360.504 63.7079H327.297L321.18 80.2528H310.694L338.22 6.2809H349.69L377.107 80.2528H366.62L360.504 63.7079ZM357.663 55.809L343.9 18.236L330.137 55.809H357.663Z"/>
<path d="M399.043 72.3539H425.696V80.2528H389.103V5.85393H399.043V72.3539Z"/>
<path d="M470.769 81C463.705 81 457.261 79.3989 451.435 76.1966C445.609 72.9232 440.985 68.4045 437.563 62.6405C434.213 56.8053 432.538 50.2584 432.538 43C432.538 35.7416 434.213 29.2303 437.563 23.4663C440.985 17.6311 445.609 13.1124 451.435 9.91011C457.261 6.6367 463.705 5 470.769 5C477.905 5 484.387 6.6367 490.212 9.91011C496.038 13.1124 500.626 17.5955 503.975 23.3595C507.325 29.1236 509 35.6704 509 43C509 50.3296 507.325 56.8764 503.975 62.6405C500.626 68.4045 496.038 72.9232 490.212 76.1966C484.387 79.3989 477.905 81 470.769 81ZM470.769 72.5674C476.085 72.5674 480.855 71.3577 485.078 68.9382C489.375 66.5187 492.725 63.0674 495.128 58.5843C497.604 54.1011 498.841 48.9064 498.841 43C498.841 37.0225 497.604 31.8277 495.128 27.4157C492.725 22.9326 489.411 19.4813 485.188 17.0618C480.964 14.6423 476.158 13.4326 470.769 13.4326C465.38 13.4326 460.574 14.6423 456.35 17.0618C452.127 19.4813 448.777 22.9326 446.301 27.4157C443.898 31.8277 442.697 37.0225 442.697 43C442.697 48.9064 443.898 54.1011 446.301 58.5843C448.777 63.0674 452.127 66.5187 456.35 68.9382C460.647 71.3577 465.453 72.5674 470.769 72.5674Z"/>
</mask>
<path d="M66.388 27.4157C64.2762 23.0749 61.2177 19.7303 57.2126 17.382C53.2074 14.9625 48.5469 13.7528 43.231 13.7528C37.915 13.7528 33.1089 14.9625 28.8124 17.382C24.5888 19.7303 21.2391 23.1461 18.7631 27.6292C16.3601 32.0412 15.1585 37.1648 15.1585 43C15.1585 48.8352 16.3601 53.9588 18.7631 58.3708C21.2391 62.7828 24.5888 66.1985 28.8124 68.618C33.1089 70.9663 37.915 72.1405 43.231 72.1405C50.6587 72.1405 56.7756 69.97 61.5818 65.6292C66.388 61.2884 69.1916 55.4176 69.9926 48.0169H39.6263V40.118H80.5881V47.5899C80.0055 53.7097 78.0393 59.3315 74.6896 64.4551C71.3398 69.5075 66.9341 73.5281 61.4726 76.5169C56.011 79.4345 49.9305 80.8933 43.231 80.8933C36.1673 80.8933 29.7227 79.2921 23.897 76.0899C18.0713 72.8165 13.4472 68.2978 10.0246 62.5337C6.67488 56.7697 5 50.2584 5 43C5 35.7416 6.67488 29.2303 10.0246 23.4663C13.4472 17.6311 18.0713 13.1124 23.897 9.91011C29.7227 6.6367 36.1673 5 43.231 5C51.3141 5 58.4505 6.95693 64.6403 10.8708C70.9029 14.7846 75.4542 20.2996 78.2942 27.4157H66.388Z" stroke="white" stroke-width="10" mask="url(#path-1-outside-1_11_15)"/>
<path d="M128.248 81C121.184 81 114.74 79.3989 108.914 76.1966C103.088 72.9232 98.4642 68.4045 95.0416 62.6405C91.6918 56.8053 90.0169 50.2584 90.0169 43C90.0169 35.7416 91.6918 29.2303 95.0416 23.4663C98.4642 17.6311 103.088 13.1124 108.914 9.91011C114.74 6.6367 121.184 5 128.248 5C135.384 5 141.865 6.6367 147.691 9.91011C153.517 13.1124 158.104 17.5955 161.454 23.3595C164.804 29.1236 166.479 35.6704 166.479 43C166.479 50.3296 164.804 56.8764 161.454 62.6405C158.104 68.4045 153.517 72.9232 147.691 76.1966C141.865 79.3989 135.384 81 128.248 81ZM128.248 72.5674C133.564 72.5674 138.334 71.3577 142.557 68.9382C146.854 66.5187 150.203 63.0674 152.606 58.5843C155.082 54.1011 156.32 48.9064 156.32 43C156.32 37.0225 155.082 31.8277 152.606 27.4157C150.203 22.9326 146.89 19.4813 142.666 17.0618C138.443 14.6423 133.637 13.4326 128.248 13.4326C122.859 13.4326 118.053 14.6423 113.829 17.0618C109.606 19.4813 106.256 22.9326 103.78 27.4157C101.377 31.8277 100.175 37.0225 100.175 43C100.175 48.9064 101.377 54.1011 103.78 58.5843C106.256 63.0674 109.606 66.5187 113.829 68.9382C118.126 71.3577 122.932 72.5674 128.248 72.5674Z" stroke="white" stroke-width="10" mask="url(#path-1-outside-1_11_15)"/>
<path d="M239.46 80.2528H229.52L189.541 21.0112V80.2528H179.601V5.74719H189.541L229.52 64.882V5.74719H239.46V80.2528Z" stroke="white" stroke-width="10" mask="url(#path-1-outside-1_11_15)"/>
<path d="M264.815 71.8202H301.954V80.2528H253.018V72.5674L289.938 14.2865H253.455V5.85393H301.735V13.5393L264.815 71.8202Z" stroke="white" stroke-width="10" mask="url(#path-1-outside-1_11_15)"/>
<path d="M360.504 63.7079H327.297L321.18 80.2528H310.694L338.22 6.2809H349.69L377.107 80.2528H366.62L360.504 63.7079ZM357.663 55.809L343.9 18.236L330.137 55.809H357.663Z" stroke="white" stroke-width="10" mask="url(#path-1-outside-1_11_15)"/>
<path d="M399.043 72.3539H425.696V80.2528H389.103V5.85393H399.043V72.3539Z" stroke="white" stroke-width="10" mask="url(#path-1-outside-1_11_15)"/>
<path d="M470.769 81C463.705 81 457.261 79.3989 451.435 76.1966C445.609 72.9232 440.985 68.4045 437.563 62.6405C434.213 56.8053 432.538 50.2584 432.538 43C432.538 35.7416 434.213 29.2303 437.563 23.4663C440.985 17.6311 445.609 13.1124 451.435 9.91011C457.261 6.6367 463.705 5 470.769 5C477.905 5 484.387 6.6367 490.212 9.91011C496.038 13.1124 500.626 17.5955 503.975 23.3595C507.325 29.1236 509 35.6704 509 43C509 50.3296 507.325 56.8764 503.975 62.6405C500.626 68.4045 496.038 72.9232 490.212 76.1966C484.387 79.3989 477.905 81 470.769 81ZM470.769 72.5674C476.085 72.5674 480.855 71.3577 485.078 68.9382C489.375 66.5187 492.725 63.0674 495.128 58.5843C497.604 54.1011 498.841 48.9064 498.841 43C498.841 37.0225 497.604 31.8277 495.128 27.4157C492.725 22.9326 489.411 19.4813 485.188 17.0618C480.964 14.6423 476.158 13.4326 470.769 13.4326C465.38 13.4326 460.574 14.6423 456.35 17.0618C452.127 19.4813 448.777 22.9326 446.301 27.4157C443.898 31.8277 442.697 37.0225 442.697 43C442.697 48.9064 443.898 54.1011 446.301 58.5843C448.777 63.0674 452.127 66.5187 456.35 68.9382C460.647 71.3577 465.453 72.5674 470.769 72.5674Z" stroke="white" stroke-width="10" mask="url(#path-1-outside-1_11_15)"/>
</svg>
