<svg width="1442" height="95" viewBox="0 0 1442 95" fill="none" xmlns="http://www.w3.org/2000/svg">
<path d="M1 6C37.057 6.13113 69.765 84.2667 103.882 84.3907C139.782 84.5213 172.877 6.63966 206.695 6.76255C242.477 6.89266 276.084 85.0266 309.609 85.1485C345.256 85.278 379.649 7.39474 412.832 7.51528C448.258 7.64393 482.511 85.7757 515.233 85.8945C551.105 86.0248 585.385 8.14108 618.143 8.25997C654.683 8.39255 688.506 86.5264 721.357 86.6456C757.866 86.778 791.749 8.89417 823.962 9.01092C860.462 9.14322 895.321 87.2739 926.677 87.3874C964.508 87.5243 998.729 9.63994 1029.68 9.75184C1068.71 9.89287 1103.16 88.0232 1132.5 88.1291C1152.97 88.2028 1194.57 11.7812 1235.2 10.3194C1269.22 9.09551 1290.3 88.3845 1330.62 88.4107C1379.43 88.4424 1407.2 11.6715 1440.9 10.4908" stroke="#E64EFF" stroke-width="12"/>
</svg>
