<svg width="423" height="83" viewBox="0 0 423 83" fill="none" xmlns="http://www.w3.org/2000/svg">
<mask id="path-1-outside-1_39_11" maskUnits="userSpaceOnUse" x="0" y="0" width="423" height="83" fill="black">
<rect fill="white" width="423" height="83"/>
<path d="M56.2396 26.736C56.2396 32.6826 54.0405 37.6381 49.6422 41.6025C45.3173 45.4986 38.6833 47.4466 29.7402 47.4466H15.006V77.2823H5V5.82023H29.7402C38.39 5.82023 44.9508 7.76826 49.4223 11.6643C53.9672 15.5604 56.2396 20.5843 56.2396 26.736ZM29.7402 39.757C35.3113 39.757 39.4163 38.6292 42.0553 36.3736C44.6942 34.118 46.0137 30.9054 46.0137 26.736C46.0137 17.9185 40.5892 13.5098 29.7402 13.5098H15.006V39.757H29.7402Z"/>
<path d="M103.422 78C96.3115 78 89.8241 76.4621 83.9598 73.3862C78.0954 70.242 73.4406 65.9017 69.9953 60.3652C66.6233 54.7603 64.9373 48.4719 64.9373 41.5C64.9373 34.5281 66.6233 28.2739 69.9953 22.7374C73.4406 17.1325 78.0954 12.7921 83.9598 9.71629C89.8241 6.5721 96.3115 5 103.422 5C110.606 5 117.13 6.5721 122.994 9.71629C128.859 12.7921 133.477 17.0983 136.849 22.6348C140.221 28.1713 141.907 34.4597 141.907 41.5C141.907 48.5403 140.221 54.8287 136.849 60.3652C133.477 65.9017 128.859 70.242 122.994 73.3862C117.13 76.4621 110.606 78 103.422 78ZM103.422 69.9003C108.773 69.9003 113.575 68.7383 117.826 66.4143C122.151 64.0904 125.523 60.7753 127.942 56.4691C130.435 52.1629 131.681 47.1732 131.681 41.5C131.681 35.7584 130.435 30.7687 127.942 26.5309C125.523 22.2247 122.188 18.9096 117.936 16.5857C113.685 14.2617 108.847 13.0997 103.422 13.0997C97.9975 13.0997 93.1594 14.2617 88.9078 16.5857C84.6561 18.9096 81.2842 22.2247 78.7918 26.5309C76.3728 30.7687 75.1633 35.7584 75.1633 41.5C75.1633 47.1732 76.3728 52.1629 78.7918 56.4691C81.2842 60.7753 84.6561 64.0904 88.9078 66.4143C93.2327 68.7383 98.0708 69.9003 103.422 69.9003Z"/>
<path d="M163.583 69.1826H200.968V77.2823H151.707V69.9003L188.873 13.9199H152.147V5.82023H200.748V13.2023L163.583 69.1826Z"/>
<path d="M223.071 69.1826H260.456V77.2823H211.195V69.9003L248.361 13.9199H211.635V5.82023H260.236V13.2023L223.071 69.1826Z"/>
<path d="M308.838 78C301.728 78 295.24 76.4621 289.376 73.3862C283.512 70.242 278.857 65.9017 275.412 60.3652C272.04 54.7603 270.354 48.4719 270.354 41.5C270.354 34.5281 272.04 28.2739 275.412 22.7374C278.857 17.1325 283.512 12.7921 289.376 9.71629C295.24 6.5721 301.728 5 308.838 5C316.022 5 322.546 6.5721 328.411 9.71629C334.275 12.7921 338.893 17.0983 342.265 22.6348C345.637 28.1713 347.323 34.4597 347.323 41.5C347.323 48.5403 345.637 54.8287 342.265 60.3652C338.893 65.9017 334.275 70.242 328.411 73.3862C322.546 76.4621 316.022 78 308.838 78ZM308.838 69.9003C314.19 69.9003 318.991 68.7383 323.243 66.4143C327.568 64.0904 330.94 60.7753 333.359 56.4691C335.851 52.1629 337.097 47.1732 337.097 41.5C337.097 35.7584 335.851 30.7687 333.359 26.5309C330.94 22.2247 327.604 18.9096 323.353 16.5857C319.101 14.2617 314.263 13.0997 308.838 13.0997C303.414 13.0997 298.576 14.2617 294.324 16.5857C290.072 18.9096 286.7 22.2247 284.208 26.5309C281.789 30.7687 280.58 35.7584 280.58 41.5C280.58 47.1732 281.789 52.1629 284.208 56.4691C286.7 60.7753 290.072 64.0904 294.324 66.4143C298.649 68.7383 303.487 69.9003 308.838 69.9003Z"/>
<path d="M370.538 69.6952H397.368V77.2823H360.532V5.82023H370.538V69.6952Z"/>
<path d="M418 5.82023V77.2823H407.994V5.82023H418Z"/>
</mask>
<path d="M56.2396 26.736C56.2396 32.6826 54.0405 37.6381 49.6422 41.6025C45.3173 45.4986 38.6833 47.4466 29.7402 47.4466H15.006V77.2823H5V5.82023H29.7402C38.39 5.82023 44.9508 7.76826 49.4223 11.6643C53.9672 15.5604 56.2396 20.5843 56.2396 26.736ZM29.7402 39.757C35.3113 39.757 39.4163 38.6292 42.0553 36.3736C44.6942 34.118 46.0137 30.9054 46.0137 26.736C46.0137 17.9185 40.5892 13.5098 29.7402 13.5098H15.006V39.757H29.7402Z" stroke="white" stroke-width="10" mask="url(#path-1-outside-1_39_11)"/>
<path d="M103.422 78C96.3115 78 89.8241 76.4621 83.9598 73.3862C78.0954 70.242 73.4406 65.9017 69.9953 60.3652C66.6233 54.7603 64.9373 48.4719 64.9373 41.5C64.9373 34.5281 66.6233 28.2739 69.9953 22.7374C73.4406 17.1325 78.0954 12.7921 83.9598 9.71629C89.8241 6.5721 96.3115 5 103.422 5C110.606 5 117.13 6.5721 122.994 9.71629C128.859 12.7921 133.477 17.0983 136.849 22.6348C140.221 28.1713 141.907 34.4597 141.907 41.5C141.907 48.5403 140.221 54.8287 136.849 60.3652C133.477 65.9017 128.859 70.242 122.994 73.3862C117.13 76.4621 110.606 78 103.422 78ZM103.422 69.9003C108.773 69.9003 113.575 68.7383 117.826 66.4143C122.151 64.0904 125.523 60.7753 127.942 56.4691C130.435 52.1629 131.681 47.1732 131.681 41.5C131.681 35.7584 130.435 30.7687 127.942 26.5309C125.523 22.2247 122.188 18.9096 117.936 16.5857C113.685 14.2617 108.847 13.0997 103.422 13.0997C97.9975 13.0997 93.1594 14.2617 88.9078 16.5857C84.6561 18.9096 81.2842 22.2247 78.7918 26.5309C76.3728 30.7687 75.1633 35.7584 75.1633 41.5C75.1633 47.1732 76.3728 52.1629 78.7918 56.4691C81.2842 60.7753 84.6561 64.0904 88.9078 66.4143C93.2327 68.7383 98.0708 69.9003 103.422 69.9003Z" stroke="white" stroke-width="10" mask="url(#path-1-outside-1_39_11)"/>
<path d="M163.583 69.1826H200.968V77.2823H151.707V69.9003L188.873 13.9199H152.147V5.82023H200.748V13.2023L163.583 69.1826Z" stroke="white" stroke-width="10" mask="url(#path-1-outside-1_39_11)"/>
<path d="M223.071 69.1826H260.456V77.2823H211.195V69.9003L248.361 13.9199H211.635V5.82023H260.236V13.2023L223.071 69.1826Z" stroke="white" stroke-width="10" mask="url(#path-1-outside-1_39_11)"/>
<path d="M308.838 78C301.728 78 295.24 76.4621 289.376 73.3862C283.512 70.242 278.857 65.9017 275.412 60.3652C272.04 54.7603 270.354 48.4719 270.354 41.5C270.354 34.5281 272.04 28.2739 275.412 22.7374C278.857 17.1325 283.512 12.7921 289.376 9.71629C295.24 6.5721 301.728 5 308.838 5C316.022 5 322.546 6.5721 328.411 9.71629C334.275 12.7921 338.893 17.0983 342.265 22.6348C345.637 28.1713 347.323 34.4597 347.323 41.5C347.323 48.5403 345.637 54.8287 342.265 60.3652C338.893 65.9017 334.275 70.242 328.411 73.3862C322.546 76.4621 316.022 78 308.838 78ZM308.838 69.9003C314.19 69.9003 318.991 68.7383 323.243 66.4143C327.568 64.0904 330.94 60.7753 333.359 56.4691C335.851 52.1629 337.097 47.1732 337.097 41.5C337.097 35.7584 335.851 30.7687 333.359 26.5309C330.94 22.2247 327.604 18.9096 323.353 16.5857C319.101 14.2617 314.263 13.0997 308.838 13.0997C303.414 13.0997 298.576 14.2617 294.324 16.5857C290.072 18.9096 286.7 22.2247 284.208 26.5309C281.789 30.7687 280.58 35.7584 280.58 41.5C280.58 47.1732 281.789 52.1629 284.208 56.4691C286.7 60.7753 290.072 64.0904 294.324 66.4143C298.649 68.7383 303.487 69.9003 308.838 69.9003Z" stroke="white" stroke-width="10" mask="url(#path-1-outside-1_39_11)"/>
<path d="M370.538 69.6952H397.368V77.2823H360.532V5.82023H370.538V69.6952Z" stroke="white" stroke-width="10" mask="url(#path-1-outside-1_39_11)"/>
<path d="M418 5.82023V77.2823H407.994V5.82023H418Z" stroke="white" stroke-width="10" mask="url(#path-1-outside-1_39_11)"/>
</svg>
