<svg id="visual" viewBox="0 0 960 540" width="960" height="540" xmlns="http://www.w3.org/2000/svg" xmlns:xlink="http://www.w3.org/1999/xlink" version="1.1"><rect x="0" y="0" width="960" height="540" fill="#43A966"></rect><path d="M0 149L14.5 142C29 135 58 121 87.2 119.7C116.3 118.3 145.7 129.7 174.8 134.7C204 139.7 233 138.3 262 136C291 133.7 320 130.3 349 125C378 119.7 407 112.3 436.2 110.3C465.3 108.3 494.7 111.7 523.8 112.8C553 114 582 113 611 113.7C640 114.3 669 116.7 698 120.2C727 123.7 756 128.3 785.2 123.3C814.3 118.3 843.7 103.7 872.8 104.7C902 105.7 931 122.3 945.5 130.7L960 139L960 0L945.5 0C931 0 902 0 872.8 0C843.7 0 814.3 0 785.2 0C756 0 727 0 698 0C669 0 640 0 611 0C582 0 553 0 523.8 0C494.7 0 465.3 0 436.2 0C407 0 378 0 349 0C320 0 291 0 262 0C233 0 204 0 174.8 0C145.7 0 116.3 0 87.2 0C58 0 29 0 14.5 0L0 0Z" fill="#43a966"></path><path d="M0 120L14.5 122C29 124 58 128 87.2 128.8C116.3 129.7 145.7 127.3 174.8 120.8C204 114.3 233 103.7 262 106C291 108.3 320 123.7 349 127.8C378 132 407 125 436.2 115.2C465.3 105.3 494.7 92.7 523.8 89.7C553 86.7 582 93.3 611 99C640 104.7 669 109.3 698 116.7C727 124 756 134 785.2 135.7C814.3 137.3 843.7 130.7 872.8 126.5C902 122.3 931 120.7 945.5 119.8L960 119L960 0L945.5 0C931 0 902 0 872.8 0C843.7 0 814.3 0 785.2 0C756 0 727 0 698 0C669 0 640 0 611 0C582 0 553 0 523.8 0C494.7 0 465.3 0 436.2 0C407 0 378 0 349 0C320 0 291 0 262 0C233 0 204 0 174.8 0C145.7 0 116.3 0 87.2 0C58 0 29 0 14.5 0L0 0Z" fill="#369655"></path><path d="M0 117L14.5 112.7C29 108.3 58 99.7 87.2 101.8C116.3 104 145.7 117 174.8 117.5C204 118 233 106 262 98.8C291 91.7 320 89.3 349 95.3C378 101.3 407 115.7 436.2 122.8C465.3 130 494.7 130 523.8 128C553 126 582 122 611 112.5C640 103 669 88 698 82.2C727 76.3 756 79.7 785.2 81.5C814.3 83.3 843.7 83.7 872.8 91.5C902 99.3 931 114.7 945.5 122.3L960 130L960 0L945.5 0C931 0 902 0 872.8 0C843.7 0 814.3 0 785.2 0C756 0 727 0 698 0C669 0 640 0 611 0C582 0 553 0 523.8 0C494.7 0 465.3 0 436.2 0C407 0 378 0 349 0C320 0 291 0 262 0C233 0 204 0 174.8 0C145.7 0 116.3 0 87.2 0C58 0 29 0 14.5 0L0 0Z" fill="#298444"></path><path d="M0 115L14.5 108.3C29 101.7 58 88.3 87.2 82.2C116.3 76 145.7 77 174.8 82.2C204 87.3 233 96.7 262 94.5C291 92.3 320 78.7 349 75.2C378 71.7 407 78.3 436.2 86.8C465.3 95.3 494.7 105.7 523.8 106.2C553 106.7 582 97.3 611 88.8C640 80.3 669 72.7 698 76.3C727 80 756 95 785.2 99.8C814.3 104.7 843.7 99.3 872.8 93.5C902 87.7 931 81.3 945.5 78.2L960 75L960 0L945.5 0C931 0 902 0 872.8 0C843.7 0 814.3 0 785.2 0C756 0 727 0 698 0C669 0 640 0 611 0C582 0 553 0 523.8 0C494.7 0 465.3 0 436.2 0C407 0 378 0 349 0C320 0 291 0 262 0C233 0 204 0 174.8 0C145.7 0 116.3 0 87.2 0C58 0 29 0 14.5 0L0 0Z" fill="#1b7234"></path><path d="M0 71L14.5 75.3C29 79.7 58 88.3 87.2 88.7C116.3 89 145.7 81 174.8 78.7C204 76.3 233 79.7 262 82.8C291 86 320 89 349 85.5C378 82 407 72 436.2 69C465.3 66 494.7 70 523.8 71.3C553 72.7 582 71.3 611 75C640 78.7 669 87.3 698 91.5C727 95.7 756 95.3 785.2 95.5C814.3 95.7 843.7 96.3 872.8 90.3C902 84.3 931 71.7 945.5 65.3L960 59L960 0L945.5 0C931 0 902 0 872.8 0C843.7 0 814.3 0 785.2 0C756 0 727 0 698 0C669 0 640 0 611 0C582 0 553 0 523.8 0C494.7 0 465.3 0 436.2 0C407 0 378 0 349 0C320 0 291 0 262 0C233 0 204 0 174.8 0C145.7 0 116.3 0 87.2 0C58 0 29 0 14.5 0L0 0Z" fill="#096125"></path><path d="M0 80L14.5 77.8C29 75.7 58 71.3 87.2 69.3C116.3 67.3 145.7 67.7 174.8 65.2C204 62.7 233 57.3 262 59C291 60.7 320 69.3 349 71C378 72.7 407 67.3 436.2 62.3C465.3 57.3 494.7 52.7 523.8 56C553 59.3 582 70.7 611 72.2C640 73.7 669 65.3 698 63.7C727 62 756 67 785.2 69.3C814.3 71.7 843.7 71.3 872.8 71.3C902 71.3 931 71.7 945.5 71.8L960 72L960 0L945.5 0C931 0 902 0 872.8 0C843.7 0 814.3 0 785.2 0C756 0 727 0 698 0C669 0 640 0 611 0C582 0 553 0 523.8 0C494.7 0 465.3 0 436.2 0C407 0 378 0 349 0C320 0 291 0 262 0C233 0 204 0 174.8 0C145.7 0 116.3 0 87.2 0C58 0 29 0 14.5 0L0 0Z" fill="#004f15"></path><path d="M0 55L14.5 52.3C29 49.7 58 44.3 87.2 43.2C116.3 42 145.7 45 174.8 44.8C204 44.7 233 41.3 262 42C291 42.7 320 47.3 349 50.7C378 54 407 56 436.2 56.2C465.3 56.3 494.7 54.7 523.8 54.5C553 54.3 582 55.7 611 57.5C640 59.3 669 61.7 698 59.5C727 57.3 756 50.7 785.2 51.8C814.3 53 843.7 62 872.8 61.8C902 61.7 931 52.3 945.5 47.7L960 43L960 0L945.5 0C931 0 902 0 872.8 0C843.7 0 814.3 0 785.2 0C756 0 727 0 698 0C669 0 640 0 611 0C582 0 553 0 523.8 0C494.7 0 465.3 0 436.2 0C407 0 378 0 349 0C320 0 291 0 262 0C233 0 204 0 174.8 0C145.7 0 116.3 0 87.2 0C58 0 29 0 14.5 0L0 0Z" fill="#003e04"></path><path d="M0 31L14.5 34.8C29 38.7 58 46.3 87.2 46.8C116.3 47.3 145.7 40.7 174.8 37.5C204 34.3 233 34.7 262 34C291 33.3 320 31.7 349 34.5C378 37.3 407 44.7 436.2 44.5C465.3 44.3 494.7 36.7 523.8 34.2C553 31.7 582 34.3 611 36.3C640 38.3 669 39.7 698 42.7C727 45.7 756 50.3 785.2 50.8C814.3 51.3 843.7 47.7 872.8 44C902 40.3 931 36.7 945.5 34.8L960 33L960 0L945.5 0C931 0 902 0 872.8 0C843.7 0 814.3 0 785.2 0C756 0 727 0 698 0C669 0 640 0 611 0C582 0 553 0 523.8 0C494.7 0 465.3 0 436.2 0C407 0 378 0 349 0C320 0 291 0 262 0C233 0 204 0 174.8 0C145.7 0 116.3 0 87.2 0C58 0 29 0 14.5 0L0 0Z" fill="#002e00"></path><path d="M0 32L14.5 32.5C29 33 58 34 87.2 32.8C116.3 31.7 145.7 28.3 174.8 26.7C204 25 233 25 262 25.5C291 26 320 27 349 29.3C378 31.7 407 35.3 436.2 36.8C465.3 38.3 494.7 37.7 523.8 37.7C553 37.7 582 38.3 611 38.5C640 38.7 669 38.3 698 35.8C727 33.3 756 28.7 785.2 28.5C814.3 28.3 843.7 32.7 872.8 34.3C902 36 931 35 945.5 34.5L960 34L960 0L945.5 0C931 0 902 0 872.8 0C843.7 0 814.3 0 785.2 0C756 0 727 0 698 0C669 0 640 0 611 0C582 0 553 0 523.8 0C494.7 0 465.3 0 436.2 0C407 0 378 0 349 0C320 0 291 0 262 0C233 0 204 0 174.8 0C145.7 0 116.3 0 87.2 0C58 0 29 0 14.5 0L0 0Z" fill="#002200"></path><path d="M0 14L14.5 13.8C29 13.7 58 13.3 87.2 13.2C116.3 13 145.7 13 174.8 13C204 13 233 13 262 13.7C291 14.3 320 15.7 349 15.3C378 15 407 13 436.2 13.8C465.3 14.7 494.7 18.3 523.8 19.7C553 21 582 20 611 19.2C640 18.3 669 17.7 698 17.2C727 16.7 756 16.3 785.2 15.3C814.3 14.3 843.7 12.7 872.8 13.7C902 14.7 931 18.3 945.5 20.2L960 22L960 0L945.5 0C931 0 902 0 872.8 0C843.7 0 814.3 0 785.2 0C756 0 727 0 698 0C669 0 640 0 611 0C582 0 553 0 523.8 0C494.7 0 465.3 0 436.2 0C407 0 378 0 349 0C320 0 291 0 262 0C233 0 204 0 174.8 0C145.7 0 116.3 0 87.2 0C58 0 29 0 14.5 0L0 0Z" fill="#000000"></path></svg>