<svg id="visual" viewBox="0 0 960 540" width="960" height="540" xmlns="http://www.w3.org/2000/svg" xmlns:xlink="http://www.w3.org/1999/xlink" version="1.1"><rect x="0" y="0" width="960" height="540" fill="#000000"></rect><path d="M0 93L14.5 95.7C29 98.3 58 103.7 87.2 112C116.3 120.3 145.7 131.7 174.8 130.5C204 129.3 233 115.7 262 113.2C291 110.7 320 119.3 349 128.2C378 137 407 146 436.2 148.3C465.3 150.7 494.7 146.3 523.8 144C553 141.7 582 141.3 611 138.3C640 135.3 669 129.7 698 124.2C727 118.7 756 113.3 785.2 114.5C814.3 115.7 843.7 123.3 872.8 122.2C902 121 931 111 945.5 106L960 101L960 0L945.5 0C931 0 902 0 872.8 0C843.7 0 814.3 0 785.2 0C756 0 727 0 698 0C669 0 640 0 611 0C582 0 553 0 523.8 0C494.7 0 465.3 0 436.2 0C407 0 378 0 349 0C320 0 291 0 262 0C233 0 204 0 174.8 0C145.7 0 116.3 0 87.2 0C58 0 29 0 14.5 0L0 0Z" fill="#ffffff"></path><path d="M0 81L14.5 89.2C29 97.3 58 113.7 87.2 118.7C116.3 123.7 145.7 117.3 174.8 110.8C204 104.3 233 97.7 262 99C291 100.3 320 109.7 349 109.7C378 109.7 407 100.3 436.2 102.2C465.3 104 494.7 117 523.8 121.3C553 125.7 582 121.3 611 115.8C640 110.3 669 103.7 698 107C727 110.3 756 123.7 785.2 124C814.3 124.3 843.7 111.7 872.8 112.5C902 113.3 931 127.7 945.5 134.8L960 142L960 0L945.5 0C931 0 902 0 872.8 0C843.7 0 814.3 0 785.2 0C756 0 727 0 698 0C669 0 640 0 611 0C582 0 553 0 523.8 0C494.7 0 465.3 0 436.2 0C407 0 378 0 349 0C320 0 291 0 262 0C233 0 204 0 174.8 0C145.7 0 116.3 0 87.2 0C58 0 29 0 14.5 0L0 0Z" fill="#dfdfdf"></path><path d="M0 97L14.5 96.7C29 96.3 58 95.7 87.2 100C116.3 104.3 145.7 113.7 174.8 116.7C204 119.7 233 116.3 262 109C291 101.7 320 90.3 349 84C378 77.7 407 76.3 436.2 81.2C465.3 86 494.7 97 523.8 104C553 111 582 114 611 116.5C640 119 669 121 698 113.7C727 106.3 756 89.7 785.2 88.7C814.3 87.7 843.7 102.3 872.8 110.5C902 118.7 931 120.3 945.5 121.2L960 122L960 0L945.5 0C931 0 902 0 872.8 0C843.7 0 814.3 0 785.2 0C756 0 727 0 698 0C669 0 640 0 611 0C582 0 553 0 523.8 0C494.7 0 465.3 0 436.2 0C407 0 378 0 349 0C320 0 291 0 262 0C233 0 204 0 174.8 0C145.7 0 116.3 0 87.2 0C58 0 29 0 14.5 0L0 0Z" fill="#c0c0c0"></path><path d="M0 72L14.5 74.3C29 76.7 58 81.3 87.2 82.2C116.3 83 145.7 80 174.8 77.2C204 74.3 233 71.7 262 78.2C291 84.7 320 100.3 349 101C378 101.7 407 87.3 436.2 84.7C465.3 82 494.7 91 523.8 97.5C553 104 582 108 611 105.5C640 103 669 94 698 87.5C727 81 756 77 785.2 80.2C814.3 83.3 843.7 93.7 872.8 98C902 102.3 931 100.7 945.5 99.8L960 99L960 0L945.5 0C931 0 902 0 872.8 0C843.7 0 814.3 0 785.2 0C756 0 727 0 698 0C669 0 640 0 611 0C582 0 553 0 523.8 0C494.7 0 465.3 0 436.2 0C407 0 378 0 349 0C320 0 291 0 262 0C233 0 204 0 174.8 0C145.7 0 116.3 0 87.2 0C58 0 29 0 14.5 0L0 0Z" fill="#a2a2a2"></path><path d="M0 84L14.5 81C29 78 58 72 87.2 70.5C116.3 69 145.7 72 174.8 74.5C204 77 233 79 262 82.5C291 86 320 91 349 92.7C378 94.3 407 92.7 436.2 93C465.3 93.3 494.7 95.7 523.8 89.8C553 84 582 70 611 63.7C640 57.3 669 58.7 698 62.7C727 66.7 756 73.3 785.2 72.7C814.3 72 843.7 64 872.8 64C902 64 931 72 945.5 76L960 80L960 0L945.5 0C931 0 902 0 872.8 0C843.7 0 814.3 0 785.2 0C756 0 727 0 698 0C669 0 640 0 611 0C582 0 553 0 523.8 0C494.7 0 465.3 0 436.2 0C407 0 378 0 349 0C320 0 291 0 262 0C233 0 204 0 174.8 0C145.7 0 116.3 0 87.2 0C58 0 29 0 14.5 0L0 0Z" fill="#858585"></path><path d="M0 70L14.5 70.3C29 70.7 58 71.3 87.2 68.2C116.3 65 145.7 58 174.8 56.8C204 55.7 233 60.3 262 64C291 67.7 320 70.3 349 70.7C378 71 407 69 436.2 65.3C465.3 61.7 494.7 56.3 523.8 59.2C553 62 582 73 611 74.8C640 76.7 669 69.3 698 64.8C727 60.3 756 58.7 785.2 56.2C814.3 53.7 843.7 50.3 872.8 52.7C902 55 931 63 945.5 67L960 71L960 0L945.5 0C931 0 902 0 872.8 0C843.7 0 814.3 0 785.2 0C756 0 727 0 698 0C669 0 640 0 611 0C582 0 553 0 523.8 0C494.7 0 465.3 0 436.2 0C407 0 378 0 349 0C320 0 291 0 262 0C233 0 204 0 174.8 0C145.7 0 116.3 0 87.2 0C58 0 29 0 14.5 0L0 0Z" fill="#696969"></path><path d="M0 42L14.5 44.5C29 47 58 52 87.2 56.7C116.3 61.3 145.7 65.7 174.8 64.3C204 63 233 56 262 52.3C291 48.7 320 48.3 349 49.3C378 50.3 407 52.7 436.2 55.5C465.3 58.3 494.7 61.7 523.8 64C553 66.3 582 67.7 611 64.5C640 61.3 669 53.7 698 49.3C727 45 756 44 785.2 44.8C814.3 45.7 843.7 48.3 872.8 53C902 57.7 931 64.3 945.5 67.7L960 71L960 0L945.5 0C931 0 902 0 872.8 0C843.7 0 814.3 0 785.2 0C756 0 727 0 698 0C669 0 640 0 611 0C582 0 553 0 523.8 0C494.7 0 465.3 0 436.2 0C407 0 378 0 349 0C320 0 291 0 262 0C233 0 204 0 174.8 0C145.7 0 116.3 0 87.2 0C58 0 29 0 14.5 0L0 0Z" fill="#4e4e4e"></path><path d="M0 43L14.5 42.5C29 42 58 41 87.2 41C116.3 41 145.7 42 174.8 44.2C204 46.3 233 49.7 262 51C291 52.3 320 51.7 349 50.2C378 48.7 407 46.3 436.2 47.2C465.3 48 494.7 52 523.8 52C553 52 582 48 611 46.8C640 45.7 669 47.3 698 45.8C727 44.3 756 39.7 785.2 38.8C814.3 38 843.7 41 872.8 43C902 45 931 46 945.5 46.5L960 47L960 0L945.5 0C931 0 902 0 872.8 0C843.7 0 814.3 0 785.2 0C756 0 727 0 698 0C669 0 640 0 611 0C582 0 553 0 523.8 0C494.7 0 465.3 0 436.2 0C407 0 378 0 349 0C320 0 291 0 262 0C233 0 204 0 174.8 0C145.7 0 116.3 0 87.2 0C58 0 29 0 14.5 0L0 0Z" fill="#353535"></path><path d="M0 34L14.5 34.2C29 34.3 58 34.7 87.2 34.3C116.3 34 145.7 33 174.8 31.3C204 29.7 233 27.3 262 26.3C291 25.3 320 25.7 349 27.5C378 29.3 407 32.7 436.2 32.2C465.3 31.7 494.7 27.3 523.8 25.5C553 23.7 582 24.3 611 25.3C640 26.3 669 27.7 698 30.2C727 32.7 756 36.3 785.2 37.5C814.3 38.7 843.7 37.3 872.8 35.7C902 34 931 32 945.5 31L960 30L960 0L945.5 0C931 0 902 0 872.8 0C843.7 0 814.3 0 785.2 0C756 0 727 0 698 0C669 0 640 0 611 0C582 0 553 0 523.8 0C494.7 0 465.3 0 436.2 0C407 0 378 0 349 0C320 0 291 0 262 0C233 0 204 0 174.8 0C145.7 0 116.3 0 87.2 0C58 0 29 0 14.5 0L0 0Z" fill="#1e1e1e"></path><path d="M0 15L14.5 15C29 15 58 15 87.2 14.5C116.3 14 145.7 13 174.8 14C204 15 233 18 262 18.8C291 19.7 320 18.3 349 18C378 17.7 407 18.3 436.2 19.8C465.3 21.3 494.7 23.7 523.8 24.3C553 25 582 24 611 23.2C640 22.3 669 21.7 698 20.7C727 19.7 756 18.3 785.2 18.8C814.3 19.3 843.7 21.7 872.8 21.5C902 21.3 931 18.7 945.5 17.3L960 16L960 0L945.5 0C931 0 902 0 872.8 0C843.7 0 814.3 0 785.2 0C756 0 727 0 698 0C669 0 640 0 611 0C582 0 553 0 523.8 0C494.7 0 465.3 0 436.2 0C407 0 378 0 349 0C320 0 291 0 262 0C233 0 204 0 174.8 0C145.7 0 116.3 0 87.2 0C58 0 29 0 14.5 0L0 0Z" fill="#000000"></path></svg>